<svg width="48" height="48" viewBox="0 0 48 48" version="1.1" xmlns="http://www.w3.org/2000/svg" xmlns:xlink="http://www.w3.org/1999/xlink">
<title>C_shield</title>
<desc>Created using Figma</desc>
<g id="Canvas" transform="translate(-334 299)">
<clipPath id="clip-0" clip-rule="evenodd">
<path d="M 334 -299L 382 -299L 382 -251L 334 -251L 334 -299Z" fill="#FFFFFF"/>
</clipPath>
<g id="C_shield" clip-path="url(#clip-0)">
<g id="C_shield">
<g id="Fill 1">
<use xlink:href="#path0_fill" transform="translate(335 -298.772)" fill="#FFFFFF"/>
</g>
<g id="Fill 3">
<use xlink:href="#path1_fill" transform="translate(335 -299)" fill="url(#paint1_linear)"/>
</g>
<g id="C Copy">
<use xlink:href="#path2_fill" transform="translate(351 -286)" fill="#2982BD"/>
</g>
</g>
</g>
</g>
<defs>
<linearGradient id="paint1_linear" x1="0" y1="0" x2="1" y2="0" gradientUnits="userSpaceOnUse" gradientTransform="matrix(0 48 -46 0 23 0)">
<stop offset="0" stop-color="#00B2E7"/>
<stop offset="1" stop-color="#378DC7"/>
</linearGradient>
<path id="path0_fill" fill-rule="evenodd" d="M 0 11.3565C 0 38.8013 22.6163 47.8514 22.9972 48.0028C 23.3844 47.8514 46 38.8013 46 11.3565L 23.0025 0.00283081L 0 11.3565Z"/>
<path id="path1_fill" fill-rule="evenodd" d="M 23.0025 0.00283048L 23.0025 0L 22.9972 0L 22.9972 0.00283048L 0 11.3552C 0 38.7967 22.6163 47.8457 22.9972 47.9972L 22.9972 48L 23 47.9986L 23.0025 48L 23.0025 47.9972C 23.3844 47.8457 46 38.7967 46 11.3552L 23.0025 0.00283048ZM 23.0025 44.7347L 23.0025 44.7361L 22.9972 44.7361L 22.9972 44.7347C 22.6681 44.6034 3.12772 36.7831 3.12772 13.075L 22.9972 3.26495L 22.9972 3.26318L 23 3.2646L 23.0025 3.26318L 23.0025 3.26495L 42.8723 13.075C 42.8723 36.7831 23.3316 44.6034 23.0025 44.7347Z"/>
<path id="path2_fill" fill-rule="evenodd" d="M 13.9656 11.1743C 13.9274 12.0374 13.7403 12.8266 13.4043 13.5421C 13.0682 14.2575 12.6023 14.8707 12.0065 15.3818C 11.4108 15.8928 10.6967 16.2902 9.86416 16.5741C 9.03164 16.8581 8.09984 17 7.06874 17C 5.95362 17 4.95882 16.8145 4.08429 16.4436C 3.20976 16.0726 2.46891 15.5408 1.8617 14.848C 1.2545 14.1553 0.792418 13.3112 0.47545 12.3156C 0.158482 11.3201 0 10.2015 0 8.95992L 0 8.06279C 0 6.82119 0.166119 5.70263 0.498363 4.70708C 0.830607 3.71153 1.30414 2.86551 1.91899 2.169C 2.53383 1.4725 3.27277 0.936876 4.13584 0.562124C 4.99891 0.187373 5.96126 0 7.02291 0C 8.10748 0 9.06792 0.14952 9.90425 0.448564C 10.7406 0.747608 11.449 1.1621 12.0295 1.69205C 12.6099 2.222 13.0644 2.85036 13.3928 3.57715C 13.7212 4.30395 13.9236 5.09507 14 5.95057L 9.99018 5.95057C 9.9749 5.48875 9.91189 5.07994 9.80115 4.72411C 9.6904 4.36829 9.51664 4.07304 9.27987 3.83834C 9.0431 3.60365 8.74141 3.42574 8.37479 3.30461C 8.00818 3.18348 7.55756 3.12291 7.02291 3.12291C 6.52646 3.12291 6.09493 3.21376 5.72831 3.39546C 5.3617 3.57716 5.05619 3.86484 4.81178 4.25852C 4.56737 4.6522 4.38598 5.16132 4.26759 5.78591C 4.14921 6.41049 4.09002 7.16187 4.09002 8.04008L 4.09002 8.95992C 4.09002 9.83813 4.14348 10.5876 4.25041 11.2084C 4.35734 11.8292 4.52728 12.3383 4.76023 12.7358C 4.99318 13.1333 5.29869 13.4228 5.67676 13.6045C 6.05483 13.7862 6.51882 13.8771 7.06874 13.8771C 7.99291 13.8771 8.6994 13.6613 9.18822 13.2298C 9.67703 12.7983 9.93672 12.1131 9.96727 11.1743L 13.9656 11.1743Z"/>
</defs>
</svg>
