<svg width="48" height="48" viewBox="0 0 48 48" version="1.1" xmlns="http://www.w3.org/2000/svg" xmlns:xlink="http://www.w3.org/1999/xlink">
<title>cljure</title>
<desc>Created using Figma</desc>
<g id="Canvas" transform="translate(-334 375)">
<clipPath id="clip-0" clip-rule="evenodd">
<path d="M 334 -375L 382 -375L 382 -327L 334 -327L 334 -375Z" fill="#FFFFFF"/>
</clipPath>
<g id="cljure" clip-path="url(#clip-0)">
<g id="Group">
<g id="Sass">
<g id="Path">
<use xlink:href="#path0_fill" transform="translate(335 -375)" fill="#F1F4F7"/>
</g>
<g id="Fill 3">
<use xlink:href="#path1_fill" transform="translate(335 -375)" fill="url(#paint1_linear)"/>
</g>
</g>
<g id="Group 4">
<g id="Combined Shape">
<use xlink:href="#path2_fill" transform="translate(345.129 -358.551)" fill="#61AC31"/>
</g>
<g id="Shape">
<use xlink:href="#path3_fill" transform="translate(347.546 -364.852)" fill="#557DD2"/>
</g>
<g id="Shape">
<use xlink:href="#path4_fill" transform="translate(355.509 -359.009)" fill="#8DAEF8"/>
</g>
<g id="Shape">
<use xlink:href="#path5_fill" transform="translate(350.963 -357.763)" fill="#8DD747"/>
</g>
<g id="Shape">
<use xlink:href="#path6_fill" transform="translate(355.223 -352.199)" fill="#8DD747"/>
</g>
</g>
</g>
</g>
</g>
<defs>
<linearGradient id="paint1_linear" x1="0" y1="0" x2="1" y2="0" gradientUnits="userSpaceOnUse" gradientTransform="matrix(-1.56425 48.1293 -46.124 -1.63226 26.2328 3.33549)">
<stop offset="0" stop-color="#9CC3FF"/>
<stop offset="1" stop-color="#61D16F"/>
</linearGradient>
<path id="path0_fill" fill-rule="evenodd" d="M 23.0025 0.00283048L 23.0025 0L 22.9972 0L 22.9972 0.00283048L 0 11.3552C 0 38.7967 22.6163 47.8457 22.9972 47.9972L 22.9972 48L 23 47.9986L 23.0025 48L 23.0025 47.9972C 23.3844 47.8457 46 38.7967 46 11.3552L 23.0025 0.00283048Z"/>
<path id="path1_fill" fill-rule="evenodd" d="M 23.0025 0.00283048L 23.0025 0L 22.9972 0L 22.9972 0.00283048L 0 11.3552C 0 38.7967 22.6163 47.8457 22.9972 47.9972L 22.9972 48L 23 47.9986L 23.0025 48L 23.0025 47.9972C 23.3844 47.8457 46 38.7967 46 11.3552L 23.0025 0.00283048ZM 23.0025 44.9986L 23.0025 45L 22.9971 45L 22.9971 44.9986C 22.6659 44.8656 3 36.946 3 12.9366L 22.9971 3.00179L 22.9971 3L 23 3.00143L 23.0025 3L 23.0025 3.00179L 43 12.9366C 43 36.946 23.3337 44.8656 23.0025 44.9986Z"/>
<path id="path2_fill" d="M 7.16258 0.170914C 6.90795 0.448692 6.65332 0.657025 6.46813 0.911655C 4.50054 3.31906 3.96813 6.00425 5.07925 8.89777C 6.2135 11.7913 8.41258 13.4348 11.5144 13.8515C 12.9496 14.0367 14.3154 13.782 15.6348 13.2033C 15.7505 13.157 15.9126 13.1107 16.0283 13.157C 18.0191 13.7589 20.0329 13.7357 22.0468 13.2728C 22.1626 13.2496 22.2552 13.2265 22.4404 13.2033C 22.3709 13.3191 22.3246 13.3885 22.2783 13.458C 20.1487 16.2126 17.3941 17.8792 13.9218 18.2959C 7.97276 19.0135 2.53295 15.5644 0.634801 9.89314C 0.0792454 8.27277 -0.129088 6.58295 0.0792455 4.86999C 0.218134 3.75888 0.796838 2.78665 1.53758 1.93017C 2.94962 0.332951 4.75517 -0.222604 6.86165 0.0783216C 6.95425 0.10147 7.02369 0.124618 7.16258 0.170914Z"/>
<path id="path3_fill" fill-rule="evenodd" d="M 15.5787 17.9537C 16.0185 17.2824 16.5278 16.6806 16.8981 15.9861C 19.4213 11.1482 16.3657 5.31485 10.9491 4.57411C 9.60648 4.38892 8.31019 4.57411 7.03704 5.06022C 6.9213 5.10652 6.71296 5.10652 6.62037 5.06022C 4.53704 3.92596 2.43056 3.87967 0.300926 4.94448C 0.208333 4.99078 0.138889 5.03707 0.0462963 5.06022C 0.0462963 5.06022 0.0231481 5.06022 0 5.03707C 0.740741 4.01855 1.62037 3.13892 2.63889 2.39818C 4.46759 1.05559 6.50463 0.291702 8.72685 0.0602208C 15.0231 -0.564779 20.787 3.74078 22.0139 9.92133C 22.2685 11.1945 22.3843 12.4676 22.1528 13.7408C 21.7824 15.7778 20.625 17.1436 18.6111 17.7223C 17.6389 18.0232 16.5972 18.0695 15.5787 17.9537Z"/>
<path id="path4_fill" fill-rule="evenodd" d="M 0 0.258783C 0.578704 0.16619 1.15741 0.0273013 1.71296 0.00415318C 5.06944 -0.111588 7.91667 2.20323 8.42593 5.51341C 8.7963 7.96712 7.96296 10.0273 6.04167 11.6245C 5.94907 11.7171 5.74074 11.7403 5.60185 11.694C 5.06944 11.5551 4.76852 11.1384 4.46759 10.7217C 3.77315 9.70323 3.28704 8.54582 2.89352 7.38841C 2.52315 6.2773 2.19907 5.14304 1.85185 4.00878C 1.45833 2.75878 0.949074 1.57823 0.115741 0.536561C 0.0925926 0.490264 0.0694444 0.467116 0.0462963 0.42082C 0.0231481 0.397672 0.0231481 0.374524 0 0.258783Z"/>
<path id="path5_fill" d="M 2.62486 10.5413C 2.25449 10.1709 1.88412 9.84681 1.5369 9.47644C -0.847363 6.72181 -0.407548 2.34681 2.50912 0.124588C 2.71745 -0.0374486 2.85634 -0.0374487 3.06467 0.10144C 3.64338 0.494959 4.12949 1.00422 4.43042 1.65237C 4.82393 2.46255 5.1943 3.27274 5.54153 4.10607C 5.58782 4.22181 5.56467 4.43014 5.49523 4.56903C 4.84708 5.86533 4.17579 7.13848 3.55079 8.43477C 3.20356 9.08292 2.94893 9.77737 2.62486 10.5413Z"/>
<path id="path6_fill" d="M 1.74488 0C 2.43933 2.06019 2.7634 4.23611 4.31433 5.94907C 3.73563 6.04167 3.24951 6.15741 2.74025 6.22685C 1.90692 6.2963 1.07359 6.18056 0.286551 5.94907C 0.0782176 5.87963 0.00877317 5.78704 0.00877317 5.5787C -0.0375231 4.79167 0.101366 4.02778 0.379144 3.28704C 0.772662 2.24537 1.21248 1.22685 1.65229 0.185185C 1.67544 0.138889 1.69859 0.0925926 1.74488 0Z"/>
</defs>
</svg>
