<?xml version="1.0" encoding="UTF-8"?>
<svg width="48px" height="48px" viewBox="0 0 48 48" version="1.1" xmlns="http://www.w3.org/2000/svg" xmlns:xlink="http://www.w3.org/1999/xlink">
    <!-- Generator: Sketch 45.1 (43504) - http://www.bohemiancoding.com/sketch -->
    <title>Groovy</title>
    <desc>Created with Sketch.</desc>
    <defs>
        <path d="M23.0024823,0.00283048074 L23.0024823,0 L22.9971631,0 L22.9971631,0.00283048074 L0,11.3551811 C0,38.7966919 22.6163061,47.8457388 22.9971631,47.9971695 L22.9971631,48 L23,47.9985848 L23.0024823,48 L23.0024823,47.9971695 C23.3844031,47.8457388 46,38.7966919 46,11.3551811 L23.0024823,0.00283048074" id="path-1"></path>
        <linearGradient x1="50%" y1="3.47975128%" x2="50%" y2="98.6207546%" id="linearGradient-3">
            <stop stop-color="#6192D8" offset="0%"></stop>
            <stop stop-color="#6398AA" offset="100%"></stop>
        </linearGradient>
    </defs>
    <g id="Levels-and-languages" stroke="none" stroke-width="1" fill="none" fill-rule="evenodd">
        <g id="Groovy">
            <g id="Kotlin" transform="translate(1.000000, 0.000000)">
                <g id="Bitmap">
                    <mask id="mask-2" fill="white">
                        <use xlink:href="#path-1"></use>
                    </mask>
                    <use id="Mask" fill="#F1F4F7" xlink:href="#path-1"></use>
                </g>
                <path d="M23.0024823,0.00283048074 L23.0024823,0 L22.9971631,0 L22.9971631,0.00283048074 L0,11.3551811 C0,38.7966919 22.6163061,47.8457388 22.9971631,47.9971695 L22.9971631,48 L23,47.9985848 L23.0024823,48 L23.0024823,47.9971695 C23.3844031,47.8457388 46,38.7966919 46,11.3551811 L23.0024823,0.00283048074 M23.0024983,44.9985668 L23.0024983,45 L22.9971448,45 L22.9971448,44.9985668 C22.6659469,44.865635 3,36.945981 3,12.9365626 L22.9971448,3.00179153 L22.9971448,3 L23,3.00143323 L23.0024983,3 L23.0024983,3.00179153 L43,12.9365626 C43,36.945981 23.3336962,44.865635 23.0024983,44.9985668" id="Fill-3" fill="url(#linearGradient-3)"></path>
            </g>
            <g id="Groovy-logo" transform="translate(3.000000, 10.000000)" fill-rule="nonzero">
                <path d="M8.11147884,20.3918961 C8.11147884,20.3376849 8.84009963,19.1392062 9.73063616,17.7286112 C10.621174,16.3180155 11.255021,15.1305853 11.1391881,15.0898793 C11.0233546,15.049174 10.6225571,15.1225505 10.2485272,15.252938 C9.12206875,15.645624 8.8906042,15.5415386 8.04925173,14.2639593 C7.13890543,12.8816166 7.10630688,12.7389516 7.5809437,12.2144843 C7.89097667,11.8719059 7.87233134,11.7920486 7.36353261,11.2832498 C7.0574464,10.9771629 6.80701228,10.6345557 6.80701228,10.5219 C6.80701228,10.3324135 4.72220613,9.47320007 1.42608969,8.30425505 C0.67873881,8.03921183 0.0672703649,7.77757653 0.0672703649,7.72284334 C0.0672703649,7.66810813 1.64615548,7.65525277 3.57590364,7.69427429 L7.08453819,7.76522165 L7.42702978,7.22503995 C8.87444855,4.94215823 11.0602699,2.88016736 12.0328332,2.88016736 C12.2353574,2.88016736 12.6464338,3.07317814 12.9463332,3.3090795 C13.4346797,3.69321232 13.5017509,3.93123835 13.5887611,5.58900449 C13.642194,6.60706209 13.7518393,7.50594148 13.832413,7.58651658 C13.9129861,7.66709033 14.1686095,7.56134065 14.4004648,7.35151496 C14.6965486,7.08356163 15.0082418,7.01091636 15.4477036,7.1074379 C15.9029599,7.20742924 16.1625925,7.13898433 16.400883,6.85615416 C16.7583308,6.43190284 18.5472086,3.56413079 18.5472086,3.41535948 C18.5472086,3.36479988 18.9013931,2.75898195 19.3342873,2.06909765 C19.7671782,1.37921335 20.2657559,0.583725541 20.4422349,0.301347959 C20.7560902,-0.200838836 20.8052662,-0.141407756 22.6908761,3.01898567 C24.6377618,6.2820803 25.685596,7.4861788 26.2101723,7.06312085 C26.5762576,6.76787862 28.4974017,6.75112494 29.0343477,7.03849048 C29.3395298,7.20181822 29.5334373,7.199677 29.7019953,7.0311163 C30.0518059,6.68130637 30.8893051,6.74223247 31.1082231,7.13341973 C31.2806996,7.44161622 31.3246884,7.44161622 31.5804705,7.13341973 C31.7356,6.94649758 32.1950653,6.79356446 32.6015021,6.79356446 C33.175913,6.79356446 33.3948457,6.91287989 33.5845932,7.32933054 L33.8287046,7.86509594 L37.6020359,7.73151045 C39.6773684,7.65803642 41.3753679,7.64494157 41.3753679,7.70241266 C41.3753679,7.75987971 39.8344676,8.37995641 37.9511442,9.0803593 C36.0678216,9.78075951 34.4956674,10.3748463 34.4574686,10.4005483 C34.4192691,10.4262503 34.5044549,11.0391277 34.6467707,11.762496 C35.0170652,13.644665 34.7755652,14.8990367 33.8444849,15.9296287 C33.4268032,16.3919531 32.7490959,16.8810974 32.3384676,17.0166163 C31.9278392,17.1521351 31.5918714,17.3116735 31.5918714,17.3711439 C31.5918714,17.4306149 32.0301547,18.1567898 32.5658353,18.9848651 C33.1015153,19.8129424 33.4593741,20.4904599 33.3610733,20.4904599 C33.2006308,20.4904599 29.2932431,18.9807528 23.2174436,16.5712414 C22.0194257,16.096139 20.9284463,15.7074166 20.7930459,15.7074166 C20.5405378,15.7074166 18.3600853,16.533942 11.965544,19.0535831 C8.25724833,20.5147647 8.11147884,20.5653823 8.11147884,20.391894 L8.11147884,20.3918961 Z M15.7208657,16.9441116 C17.6938712,16.1775617 19.6505697,15.4284565 20.0690862,15.2794344 C20.7889249,15.0231216 21.0296519,15.0873822 24.526013,16.469201 C26.5588057,17.2725935 28.5644225,18.0551584 28.9829383,18.2082301 C29.4014549,18.3613051 30.2639793,18.6939618 30.899656,18.9474695 C31.6244962,19.2365329 31.9949864,19.3061322 31.893312,19.134134 C30.7575393,17.2128163 30.7228211,17.1807936 29.9356885,17.3284595 C28.9862608,17.5065726 28.3966118,17.3238515 28.0935777,16.7576341 C27.8970729,16.3904617 27.9570565,16.2108882 28.4470444,15.6994504 C29.1768519,14.9376963 29.062203,14.2368958 28.1211673,13.7075083 C27.7600842,13.5043794 27.3044654,13.0022646 27.1086797,12.5916968 L26.7527058,11.8452096 L25.9894892,12.363143 C25.0514322,12.9997252 23.9074297,13.0325255 22.9523909,12.4502232 L22.2484146,12.0209945 L21.430514,12.5768388 C20.6115228,13.1334244 19.6686305,13.2053323 18.7102672,12.7842952 C18.4462324,12.6682949 18.3297975,12.7133821 18.3297975,12.9316227 C18.3297975,13.1045869 18.0806086,13.3596405 17.7760406,13.4984112 C16.8628992,13.9144642 15.9717775,13.8039848 15.3676075,13.1998148 L14.8167009,12.6489082 L14.3720559,13.2141831 C14.1275019,13.5250839 13.5614803,14.0104611 13.1142312,14.2927948 C12.5606197,14.6422764 11.8752854,15.4950386 10.9672034,16.9643438 C10.2335871,18.1513604 9.63335581,19.1829487 9.63335581,19.2567672 C9.63335581,19.3305829 10.1959076,19.1540211 10.8834693,18.8644067 C11.5710323,18.5747937 13.7478602,17.7106614 15.7208657,16.9441116 L15.7208657,16.9441116 Z M32.4555321,16.1194805 C33.9526724,15.2780406 34.299698,13.7214212 33.6379332,10.815671 C33.0848766,8.38723708 32.8087923,7.59252786 32.4812233,7.48605905 C32.2545881,7.41239599 32.2197609,7.49325631 32.3474508,7.7966026 C33.1758961,9.76477943 33.2219407,10.7529078 32.4981513,11.030653 C32.0009217,11.22146 31.4734628,10.5065664 31.0586314,9.07959309 C30.7374073,7.97461883 30.4014934,7.47664995 30.148203,7.72994036 C30.087554,7.79059132 30.1938446,8.1417137 30.3844054,8.51021807 C30.5749642,8.8787184 30.8362746,9.98845407 30.9650946,10.9762958 C31.0939153,11.9641356 31.3427404,12.9984921 31.5180389,13.274865 C31.9735924,13.9930845 32.6987199,13.8199971 33.1677652,12.8810751 C33.6315089,11.9527608 33.6839199,12.571106 33.2329703,13.6503803 C32.7647188,14.7710622 31.3739928,15.1071073 29.7628837,14.4888664 C29.5050162,14.3899144 29.4177605,14.4923308 29.4177605,14.8938992 C29.4177605,15.1895061 29.2202426,15.6824727 28.9788295,15.9893769 L28.5398984,16.5473886 L29.1418881,16.6490496 C30.1811783,16.8245641 31.6062222,16.5968196 32.4555321,16.1194805 L32.4555321,16.1194805 Z M10.9043607,14.2670343 C14.0297184,13.3686722 14.5882124,12.3208401 13.5500268,9.30330069 C13.3090745,8.60296305 13.1119333,7.84960762 13.1119333,7.62917407 C13.1119333,6.87863053 12.7344443,7.22544357 12.4515314,8.23591441 C12.0773716,9.57228125 10.9519976,10.708136 10.0065792,10.7036363 C9.18551277,10.6997211 8.91797584,10.5502544 8.57884777,9.9059658 C7.97022049,8.74966761 8.63365226,6.97513256 10.3258282,5.23318328 C11.5652383,3.95731309 12.2422889,3.8417654 12.2422889,4.9061114 C12.2422889,6.56588657 11.0979299,9.00924713 10.4950697,8.63665945 C10.2002876,8.45447381 10.2480946,7.64997003 10.5904066,7.03225519 C10.881509,6.50695302 10.8223642,5.70651035 10.4924475,5.70651035 C10.1098883,5.70651035 9.35251953,7.09981145 9.25244073,7.9876982 C9.16397011,8.77262631 9.21928586,8.96348512 9.59326738,9.16363262 C10.9038582,9.86504053 12.620791,7.72435289 12.7072684,5.281067 C12.7526786,3.99800715 12.5043299,3.63690494 11.7130756,3.83549742 C10.5614884,4.12452744 7.45924556,8.12644804 7.45924556,9.32297391 C7.45924556,10.258893 7.92928849,10.9170986 8.75677452,11.1399196 C10.1636797,11.5187607 11.5239672,10.8456864 12.487811,9.29379337 L12.8928963,8.64155942 L12.8937842,9.52766014 C12.894874,10.8107616 12.0578699,11.487071 9.41602948,12.337404 C8.75836143,12.5490904 8.19283091,12.7446864 8.15929797,12.7720628 C8.03682824,12.872048 9.28186479,14.6203638 9.47553953,14.6203638 C9.58536648,14.6203638 10.2283723,14.4613642 10.9044448,14.2670343 L10.9043607,14.2670343 Z M29.7344701,12.6740606 C30.0481834,12.3274097 30.1034823,11.9508349 30.0362308,10.61907 C29.9630817,9.17051639 29.8830252,8.9145392 29.3190325,8.32585758 C28.2999659,7.26218261 27.0411752,7.53352839 27.7779902,8.65804806 C28.1696759,9.25583741 28.6474866,9.15373916 28.4787059,8.50831701 C28.3442567,7.99418576 28.5950823,7.98067652 29.0322327,8.47850144 C29.8524609,9.41257535 29.645425,10.7069655 28.675794,10.7069655 C28.0120265,10.7069655 27.8051843,10.4222934 27.3725295,8.91332362 C27.1753877,8.22576197 26.9352964,7.66320951 26.8389901,7.66320951 C26.5181784,7.66320951 26.3753042,7.94633567 26.5748052,8.18673439 C26.6831697,8.3173129 26.983283,9.25574593 27.2417263,10.2721433 C27.8921655,12.8301635 28.8008287,13.7057203 29.7344701,12.6740606 L29.7344701,12.6740606 Z M17.372111,12.7146885 C17.5059642,12.6248826 17.5671783,12.2001422 17.5119426,11.7444481 C17.4228436,11.0093834 17.3729203,10.9557636 16.9756161,11.1683938 C16.4046703,11.4739539 15.7910933,10.89504 15.5829702,9.85442863 C15.425082,9.06498534 15.3767691,9.08049048 16.5264882,9.55161176 C16.6706405,9.61068052 17.0375217,9.41007356 17.3417802,9.10581508 C17.8983805,8.5492147 18.081621,7.8806206 17.6775642,7.8806206 C17.5579884,7.8806206 17.4601531,7.97845593 17.4601531,8.09803169 C17.4601531,8.41078709 16.8653277,8.36642834 16.7313023,8.04367925 C16.653118,7.85540363 16.486568,7.92219503 16.1891603,8.26109035 C15.9530514,8.53013683 15.6646714,8.75026564 15.5483152,8.75026564 C15.4319583,8.75026564 15.2748208,8.53013683 15.1991228,8.26109035 C15.066469,7.78962196 15.0502091,7.78664794 14.7499337,8.17890682 C14.4868662,8.52256017 14.4845138,8.63202856 14.7348241,8.88232679 C14.9999111,9.14741508 15.5034654,10.9590316 15.5034654,11.6476393 C15.5034654,12.5039016 16.6826698,13.1772544 17.3721218,12.7146885 L17.372111,12.7146885 Z M21.3372342,11.5794803 C22.1542778,10.7624366 22.3963738,9.5377285 21.9513743,8.47269466 C21.6035757,7.64029318 20.9998578,7.32875134 20.1486106,7.54240068 C19.5160922,7.70115268 18.5527483,9.54548275 18.5493337,10.6042356 C18.5440058,12.2543117 20.1134053,12.8033071 21.3372342,11.5794803 Z M19.8516751,10.2721433 C19.6125223,10.0329904 19.4199642,9.56827462 19.423767,9.23944026 C19.4300501,8.69591926 19.4569414,8.67615186 19.7195003,9.02202917 C20.0440556,9.44957876 20.6207866,9.52364141 20.8417321,9.16614382 C20.9220745,9.03614989 20.8789293,8.82091096 20.7458584,8.68784009 C20.4040361,8.34601784 20.4454552,7.8806206 20.8176978,7.8806206 C21.2315027,7.8806206 21.8083743,8.72249374 21.8083743,9.32638923 C21.8083743,9.77082704 20.9039646,10.7069655 20.4745886,10.7069655 C20.3711369,10.7069655 20.0908273,10.5112948 19.8516751,10.2721433 Z M25.6604019,11.5222561 C26.5625472,10.5399318 26.4746262,9.02666006 25.4519815,7.93497371 C24.9238707,7.37120769 23.7505135,7.27400739 23.2702791,7.75424246 C22.8271281,8.19739338 22.3846883,9.94006044 22.5490587,10.594963 C22.8996194,11.9917097 24.7286461,12.5368243 25.6604019,11.5222561 L25.6604019,11.5222561 Z M23.8134503,9.93369868 C23.4564982,9.68367895 23.3338523,9.3854627 23.3440336,8.79229078 C23.3554259,8.12898279 23.3900667,8.06914714 23.5432514,8.44826005 C23.7683199,9.0052802 24.2403689,9.21563597 24.6544328,8.94343048 C24.9112394,8.77460675 24.8992491,8.69480123 24.5803654,8.45040126 C24.1550895,8.12446087 24.0721324,7.66320951 24.4387848,7.66320951 C24.7666364,7.66320951 25.9391844,8.94583068 25.9391844,9.30445707 C25.9391844,9.65447554 25.1065528,10.2721433 24.6347185,10.2721433 C24.4487798,10.2721433 24.0792066,10.1198418 23.8134503,9.93369868 Z M36.5923252,8.97248118 L38.8751417,8.11567065 L36.4292666,8.10684142 C34.2403427,8.09894657 33.9837036,8.13799231 33.9863601,8.47849337 C33.9890576,8.82342687 34.2104195,9.84300209 34.2805132,9.83329632 C34.2964711,9.83108312 35.336777,9.44371749 36.5923252,8.97247244 L36.5923252,8.97248118 Z M6.75836033,8.81915184 L6.99167078,8.12710056 L4.94215399,8.05821302 C3.8149217,8.020325 2.89285757,8.04932458 2.89312692,8.12266072 C2.89351709,8.22996569 6.42526305,9.60981138 6.50297176,9.5330189 C6.51510397,9.52101787 6.6300401,9.19978035 6.75836033,8.81915184 Z M20.8117585,6.67410508 C21.293863,6.75119692 21.8376187,6.94851704 22.0201064,7.11259686 C22.3035023,7.36740557 22.4267746,7.35003838 22.8651615,6.99353841 C23.1474568,6.76397828 23.514338,6.57615472 23.6804534,6.57615472 C23.8465702,6.57615472 23.9824852,6.52818557 23.9824852,6.46955339 C23.9824852,6.26712475 20.8517534,1.14089826 20.7323532,1.14782105 C20.5920945,1.15595216 17.3832288,6.53536869 17.2844349,6.92798478 C17.2429734,7.09276488 17.3730999,7.15359008 17.6257405,7.08752318 C17.8503132,7.02879615 18.1608197,7.13348633 18.3157508,7.32016832 C18.5670325,7.62294348 18.6696655,7.59882168 19.2663268,7.09676545 C19.8331785,6.61979098 20.068916,6.55531974 20.8117585,6.67410508 L20.8117585,6.67410508 Z" id="path4019" fill="#333333"></path>
                <path d="M18.5093865,7.48860591 C18.4757009,7.47292452 18.4341755,7.43694294 18.3393405,7.34126027 C18.2107276,7.21149775 18.1596021,7.17374831 18.0526961,7.12960886 C17.9122416,7.07161912 17.7597403,7.05599961 17.6166287,7.0849474 C17.4889442,7.11077451 17.4535418,7.11355546 17.3958191,7.1022897 C17.2994718,7.08348561 17.265209,7.02497654 17.2925033,6.92585836 C17.3265239,6.80231163 17.5842501,6.32428976 18.1003524,5.427487 C19.1486736,3.60587359 20.5581586,1.30913014 20.7138438,1.16882474 C20.7310858,1.15328569 20.7316704,1.15328569 20.7489912,1.16882474 C20.8416682,1.2519693 21.3864586,2.09217031 22.1307487,3.29983541 C23.1375815,4.93349649 23.974698,6.37030471 23.974698,6.46475163 C23.974698,6.52242184 23.8861648,6.55705666 23.6998373,6.57227994 C23.4682753,6.59119906 23.2003697,6.72712825 22.8341438,7.01151237 C22.6601073,7.14665719 22.5858314,7.19713351 22.5011138,7.23783544 C22.4305283,7.27174711 22.4246327,7.27311001 22.3485082,7.27311001 C22.2735906,7.27311001 22.2659937,7.27143497 22.2074941,7.24207953 C22.1730429,7.2247897 22.106273,7.17821977 22.0567042,7.1369077 C21.9101571,7.01477095 21.7338616,6.92593842 21.4464295,6.82939871 C21.0811534,6.70671371 20.6900052,6.63307688 20.3569516,6.62429406 C20.0939689,6.61735983 19.9727026,6.64097577 19.7733126,6.73795609 C19.6105264,6.81713196 19.5320669,6.87337873 19.1594873,7.17800182 C18.7805022,7.48786056 18.6459171,7.55216295 18.5093865,7.48860591 L18.5093865,7.48860591 Z" id="path4567" fill="#6398AA"></path>
                <path d="M6.33964402,9.49728421 C5.65624438,9.29811684 3.2786291,8.3590952 2.94579195,8.15690671 C2.89985194,8.12900028 2.89613983,8.12476023 2.90925022,8.11517353 C2.98537087,8.05951335 3.73923084,8.03182487 4.59128051,8.05339511 C4.93108398,8.06199765 6.97946726,8.12962791 6.98280253,8.13235505 C6.98950938,8.13783758 6.54408942,9.42991967 6.50985755,9.50428907 C6.49556193,9.5353478 6.46608943,9.53413491 6.33964402,9.49728421 L6.33964402,9.49728421 Z" id="path4571" fill="#6398AA"></path>
                <path d="M34.2606308,9.80481405 C34.1673806,9.62231829 33.9991045,8.79773161 33.9941877,8.49919179 C33.9922772,8.38320153 34.006745,8.33589903 34.0588076,8.28790902 C34.1781304,8.1779213 34.4206804,8.13835355 35.0873829,8.12011386 C35.4239681,8.11090522 36.977808,8.10948783 38.0749452,8.11738941 L38.8437507,8.12292576 L36.9926249,8.81677047 C35.304615,9.44947516 34.3230187,9.81514745 34.2866806,9.82481016 C34.2775876,9.82723189 34.2685303,9.82027614 34.2606308,9.80481539 L34.2606308,9.80481539 L34.2606308,9.80481405 Z" id="path4573" fill="#6398AA"></path>
                <path d="M9.66619653,19.2363735 C9.66619653,19.1845228 9.88609663,18.7968895 10.443435,17.8662793 C11.7788311,15.6365149 12.3893749,14.8283416 13.1391549,14.2979706 C13.8099259,13.8234878 14.1685792,13.4954755 14.5683401,12.9908852 L14.8148247,12.6797651 L15.1471336,13.006465 C15.728877,13.5783902 16.0795883,13.7441976 16.7143427,13.7474023 C17.4906818,13.7513242 18.3408386,13.3176725 18.3408386,12.9177576 C18.3408386,12.8276287 18.4050172,12.7346234 18.4672107,12.7346234 C18.4935349,12.7346234 18.6432478,12.7806128 18.7999063,12.8368226 C19.2082321,12.9833307 19.4477388,13.0363115 19.7826672,13.0542169 C20.1149814,13.0719823 20.3577265,13.042754 20.6812762,12.9460185 C20.9991697,12.8509736 21.1822446,12.7536892 21.7305815,12.3884266 C22.0069013,12.2043628 22.2418053,12.0537653 22.2525915,12.0537653 C22.2633769,12.0537653 22.4628342,12.1694003 22.6958292,12.310732 C22.9288241,12.4520637 23.208794,12.6054657 23.3179852,12.6516253 C24.0625753,12.9663954 24.8668483,12.9458591 25.6032443,12.5932743 C25.7349563,12.5302103 26.0450713,12.342306 26.2923888,12.175709 C26.5397069,12.0091119 26.7455307,11.8766411 26.7497755,11.8813298 C26.7540202,11.8860185 26.8477245,12.0778131 26.9580068,12.30754 C27.0682899,12.537267 27.2068366,12.7963736 27.2658892,12.883332 C27.5215172,13.2597621 27.8158836,13.5393129 28.2132867,13.7830489 C28.6223725,14.0339505 28.8746929,14.3674131 28.9007104,14.6915399 C28.92652,15.0130707 28.7861295,15.2982775 28.381256,15.7468242 C28.0652555,16.096912 27.986157,16.2335522 27.9869757,16.4279306 C27.9877964,16.6225182 28.1014046,16.8469268 28.3011041,17.0484183 C28.6243604,17.3745747 29.1316274,17.4713989 29.8776079,17.3493315 C30.0440402,17.3220977 30.2539715,17.2997148 30.3441219,17.2995931 C30.6324097,17.2991895 30.808502,17.4405884 31.1441354,17.9419302 C31.3757815,18.2879454 31.8823577,19.1363209 31.8823577,19.1782492 C31.8823577,19.2000495 31.8587155,19.2153878 31.8251126,19.2153878 C31.7544054,19.2153878 31.4468419,19.131717 31.2242443,19.0519249 C30.9317191,18.9470672 27.3715104,17.571623 26.1959285,17.1092946 C23.0568578,15.8747745 22.0232789,15.4805136 21.518178,15.3249556 C20.9723348,15.1568503 20.6005907,15.1174117 20.2987943,15.1955907 C19.9234284,15.2928273 14.8014151,17.2721515 11.8138184,18.4744794 C10.3384992,19.0682077 10.1537546,19.1388261 9.87769927,19.2145604 C9.65819405,19.2747815 9.66619653,19.2739561 9.66619653,19.2363735 L9.66619653,19.2363735 Z" id="path4575" fill="#6398AA"></path>
            </g>
        </g>
    </g>
</svg>