<svg width="48" height="48" viewBox="0 0 48 48" version="1.1" xmlns="http://www.w3.org/2000/svg" xmlns:xlink="http://www.w3.org/1999/xlink">
<title>Java_shield</title>
<desc>Created using Figma</desc>
<g id="Canvas" transform="translate(-134 220)">
<clipPath id="clip-0" clip-rule="evenodd">
<path d="M 134 -220L 182 -220L 182 -172L 134 -172L 134 -220Z" fill="#FFFFFF"/>
</clipPath>
<g id="Java_shield" clip-path="url(#clip-0)">
<g id="Group + Java icon 24">
<g id="Group">
<g id="Fill 1">
<use xlink:href="#path0_fill" transform="translate(135.099 -219.751)" fill="#E9EFF0"/>
</g>
<g id="Fill 3">
<use xlink:href="#path1_fill" transform="translate(135 -220)" fill="#E74C3C"/>
</g>
</g>
<g id="Java icon 24">
<g id="Combined Shape">
<use xlink:href="#path2_fill" transform="translate(149.039 -211.096)" fill="url(#paint2_linear)"/>
</g>
</g>
</g>
</g>
</g>
<defs>
<linearGradient id="paint2_linear" x1="0" y1="0" x2="1" y2="0" gradientUnits="userSpaceOnUse" gradientTransform="matrix(0 24.8738 -18.204 0 9.10201 0)">
<stop offset="0" stop-color="#D56958"/>
<stop offset="1" stop-color="#E41500"/>
</linearGradient>
<path id="path0_fill" fill-rule="evenodd" d="M 0 11.2446C 0 38.4189 22.478 47.3799 22.8566 47.5298C 23.2414 47.3799 45.7188 38.4189 45.7188 11.2446L 22.8619 0.00280292L 0 11.2446Z"/>
<path id="path1_fill" fill-rule="evenodd" d="M 23.0025 0.00283048L 23.0025 0L 22.9972 0L 22.9972 0.00283048L 0 11.3552C 0 38.7967 22.6163 47.8457 22.9972 47.9972L 22.9972 48L 23 47.9986L 23.0025 48L 23.0025 47.9972C 23.3844 47.8457 46 38.7967 46 11.3552L 23.0025 0.00283048ZM 23.0025 44.9986L 23.0025 45L 22.9971 45L 22.9971 44.9986C 22.6659 44.8656 3 36.946 3 12.9366L 22.9971 3.00179L 22.9971 3L 23 3.00143L 23.0025 3L 23.0025 3.00179L 43 12.9366C 43 36.946 23.3337 44.8656 23.0025 44.9986Z"/>
<path id="path2_fill" fill-rule="evenodd" d="M 8.69104 13.2122L 9.01562 13.5219C 9.01562 13.5219 8.22221 12.0978 8.09135 11.678C 8.00514 11.4013 7.90231 11.1401 7.8029 10.8876C 7.3024 9.6161 6.8884 8.56442 9.11739 6.86038L 9.19279 6.80281L 9.19406 6.76076C 11.0707 5.34853 12.0816 3.93248 12.1997 2.55106C 12.3066 1.29561 11.6198 0.555283 11.5903 0.524277L 11.0932 0L 11.2525 0.704834C 11.7466 2.89221 10.4268 4.10242 8.91112 5.24933L 8.83443 5.3071L 8.83357 5.3481C 8.71887 5.43393 8.60352 5.51953 8.48839 5.60492C 7.63782 6.2352 6.75858 6.88736 6.19713 7.68396C 4.9729 9.42015 6.6785 11.2897 8.69104 13.2122ZM 9.77869 11.6889C 8.87183 10.586 8.58058 9.53719 8.91324 8.57234C 9.72536 6.21863 13.9642 5.25314 14.1441 5.21342L 15.5159 4.9088L 14.2824 5.58134C 11.8645 6.89946 10.7006 7.8418 10.5088 8.63628C 10.3707 9.20836 10.735 9.74409 11.1962 10.422L 11.3443 10.6405C 11.6708 11.1272 11.7674 11.6292 11.6308 12.1326C 11.3029 13.3426 9.73195 14.114 9.66524 14.1463L 7.97282 14.9641L 9.45663 13.8108L 9.45703 13.8105C 9.47572 13.7954 10.0556 13.328 10.1249 12.6903C 10.1621 12.35 10.0455 12.013 9.77869 11.6889ZM 14.4115 13.5432L 14.755 13.035C 14.7724 13.0093 14.9335 12.7816 15.2326 12.6841C 15.5247 12.59 15.8182 12.5426 16.1061 12.5426C 17.2054 12.5426 18.0831 13.2311 18.1932 14.18C 18.3187 15.2647 17.3726 16.6776 14.3401 17.3894L 13.5378 17.5776L 14.166 17.0446C 14.1798 17.0327 14.198 17.013 14.2031 17.0045L 14.232 16.9344L 14.2972 16.9074C 16.8836 15.6492 16.9367 14.5331 16.8396 14.1112C 16.692 13.4699 15.9718 13.1281 15.4499 13.223C 15.1355 13.2798 14.99 13.332 14.9885 13.3327L 14.4115 13.5432ZM 12.8162 17.8555C 12.2839 17.652 11.5754 17.2973 11.5155 17.2673L 11.5115 17.2654L 11.4535 17.2358L 11.3895 17.2467C 10.1317 17.4546 9.58685 17.5396 8.72566 17.5608L 8.59842 17.5659C 7.7126 17.5763 6.89368 17.5232 5.77843 17.3788L 5.59143 17.3546C 4.96637 17.2741 4.61336 17.2287 4.68527 17.1075C 4.7643 16.975 5.17812 16.7929 5.17812 16.7929L 4.40721 16.8887C 3.50099 17.1632 3.11946 17.4406 3.17108 17.7883C 3.3183 18.7806 7.62634 18.8095 8.11705 18.8095L 8.11726 18.8095C 8.31419 18.8095 8.51282 18.8074 8.71271 18.8027L 8.90686 18.7965L 8.90686 18.7948C 10.2399 18.7475 11.5805 18.5539 12.796 18.2332L 13.3921 18.0758L 12.8162 17.8555ZM 8.81552 24.0987C 10.5287 24.0987 12.1738 23.9798 13.5729 23.7544C 16.5762 23.2709 17.4881 22.3859 17.4968 22.3774L 17.8928 21.9804C 17.8928 21.9804 16.7153 24.6551 9.47766 24.8707C 9.2131 24.8786 8.94856 24.8699 8.69002 24.8613L 8.54701 24.8567C 7.80988 24.8325 7.09718 24.7894 6.42867 24.7286C 3.71065 24.4822 2.03352 23.4421 2.03352 23.4421L 3.06889 23.6412C 4.42632 23.9023 6.47838 24.076 8.4493 24.0975L 8.81552 24.0987ZM 7.64272 16.3158L 7.6425 16.3158C 7.42221 16.3094 2.24214 16.1488 2.05371 15.1324C 1.9868 14.7708 2.45351 14.5756 2.60751 14.5118C 4.13594 13.8743 5.41922 13.8098 6.048 13.8276C 6.22536 13.8328 6.33063 13.8444 6.34758 13.8463L 6.34987 13.8465L 7.65205 14.0069L 6.3607 14.2395C 5.31024 14.4288 4.33562 14.7209 4.12489 14.9036C 4.19202 14.9454 4.36961 15.0264 4.81868 15.112C 5.4462 15.2313 6.47308 15.3165 7.71069 15.3524C 7.99661 15.3605 8.29126 15.3654 8.58823 15.3681L 8.58823 15.3662L 8.77687 15.3671C 9.27756 15.3686 9.76274 15.3628 10.219 15.3501C 11.8637 15.3025 13.5448 15.1032 13.6619 15.0894L 13.6621 15.0893L 13.6625 15.0893L 13.6682 15.0886L 15.39 14.8776L 13.7604 15.4722C 13.7545 15.4744 13.1523 15.6953 12.72 15.9568L 12.6906 15.9746L 12.6571 15.9816C 11.6544 16.1871 10.369 16.3035 8.933 16.3228L 8.93257 16.3277L 8.74564 16.3285C 8.3826 16.3309 8.01192 16.3264 7.64272 16.3158ZM 4.89771 19.2055L 4.89709 19.2056C 4.6048 19.2791 3.71941 19.5015 3.785 20.031C 3.88165 20.8123 6.35645 21.3567 8.51727 21.3567L 8.83931 21.3523L 8.83931 21.3499C 10.0833 21.3115 11.2931 21.0708 12.3488 20.6515L 12.8011 20.4717L 12.3525 20.2835C 11.64 19.9849 10.9279 19.6433 10.9209 19.6399L 10.8646 19.6129L 10.803 19.6229C 9.82646 19.7811 9.32768 19.858 8.66469 19.8725L 8.54871 19.8774C 7.91206 19.8763 7.29666 19.8296 6.37195 19.6994C 5.51501 19.5779 5.24184 19.5014 5.16026 19.3801C 5.07912 19.2588 5.24565 19.1181 5.24565 19.1181L 4.89771 19.2055ZM 8.7809 23.549L 8.7809 23.5498L 8.53406 23.5515C 6.1472 23.5515 3.72107 23.3213 1.32317 22.8675L 1.32208 22.8673C 0.979828 22.8023 -0.0550079 22.6058 0.00228882 21.9927C 0.0770569 21.1997 2.09769 20.5905 3.0808 20.5958C 3.77119 20.5998 4.30078 20.815 4.30078 20.815C 4.30078 20.815 3.32425 20.7487 1.89673 21.6883C 1.91373 21.7023 1.94452 21.7229 1.99805 21.7482C 3.0056 22.219 5.41475 22.5159 8.45801 22.547L 8.91069 22.5478C 11.4424 22.5478 13.7126 22.3566 14.8355 22.0486C 15.5189 21.8609 15.6089 21.7812 15.7551 21.6519C 15.7785 21.6312 15.8033 21.6092 15.8322 21.5853C 16.0417 21.4122 14.9275 20.9803 14.9275 20.9803C 14.9275 20.9803 15.8543 21.1131 16.2847 21.3117C 16.7149 21.5103 16.6497 21.8332 16.6091 22.0129C 16.389 22.9803 12.4498 23.5201 8.7809 23.549Z"/>
</defs>
</svg>
