<svg width="48" height="48" xmlns="http://www.w3.org/2000/svg"><defs><linearGradient x1="50%" y1="0%" x2="50%" y2="100%" id="a"><stop stop-color="#6682DF" offset="0%"/><stop stop-color="#A876C0" offset="100%"/></linearGradient></defs><g fill="none" fill-rule="evenodd"><path d="M24.002.003V0h-.005v.003L1 11.355c0 27.442 22.616 36.49 22.997 36.642V48l.003-.001.002.001v-.003C24.384 47.846 47 38.797 47 11.355L24.002.003" fill="#F1F4F7"/><path d="M23.002.003V0h-.005v.003L0 11.355c0 27.442 22.616 36.49 22.997 36.642V48l.003-.001.002.001v-.003C23.384 47.846 46 38.797 46 11.355L23.002.003m0 44.996V45h-.005v-.001C22.666 44.866 3 36.946 3 12.937l19.997-9.935V3l.003.001.002-.001v.002L43 12.937c0 24.009-19.666 31.929-19.998 32.062" fill="url(#a)" transform="translate(1)"/><g fill-rule="nonzero"><g fill="#252525"><path d="M14.869 26.177v-8.725l-2.585.711v9.278c0 .49-.038.819-.113.988-.075.17-.184.254-.327.254a.43.43 0 0 1-.226-.08 1.362 1.362 0 0 1-.305-.315 2.99 2.99 0 0 0-.4-.435c-.162-.147-.379-.22-.65-.22-.36 0-.649.09-.863.271a.839.839 0 0 0-.322.666c0 .316.192.587.576.813.384.225.937.338 1.659.338a7.51 7.51 0 0 0 1.456-.13 2.51 2.51 0 0 0 1.123-.513c.312-.256.553-.615.723-1.078.169-.463.254-1.07.254-1.823zM18.459 17.7h-2.574v5.971c0 .369.077.715.231 1.039.155.323.367.605.638.846.271.24.587.431.948.57.362.14.753.209 1.174.209a2.71 2.71 0 0 0 1.118-.26 4.62 4.62 0 0 0 1.083-.688v.79h2.574V17.7h-2.574v6.118a2.938 2.938 0 0 1-.688.75c-.264.2-.493.3-.689.3-.173 0-.335-.032-.485-.096a1.343 1.343 0 0 1-.395-.254 1.16 1.16 0 0 1-.361-.847v-5.97zM27.227 26.177V13.58l-2.563.711v11.886zM28.252 18.163v8.014h2.573v-8.725zM36.255 21.797v2.45a8.683 8.683 0 0 1-.716.485 1.238 1.238 0 0 1-.638.192.498.498 0 0 1-.294-.096 1.065 1.065 0 0 1-.248-.254 1.21 1.21 0 0 1-.175-.378 1.676 1.676 0 0 1-.062-.457c0-.203.064-.399.192-.587a2.45 2.45 0 0 1 .502-.53 4.86 4.86 0 0 1 .689-.458 8.09 8.09 0 0 1 .75-.367zm2.585 4.38v-6.355c0-.353-.067-.673-.203-.96a1.89 1.89 0 0 0-.632-.733c-.286-.203-.649-.36-1.09-.468-.44-.11-.964-.164-1.574-.164-.496 0-.967.053-1.41.158a4.885 4.885 0 0 0-1.175.429c-.338.18-.607.397-.807.649-.2.252-.299.525-.299.818 0 .316.113.578.339.785.226.207.519.31.88.31.234 0 .427-.034.582-.101a.853.853 0 0 0 .355-.271c.083-.113.141-.245.175-.395.034-.15.05-.305.05-.463 0-.279.08-.516.238-.711.158-.196.44-.294.846-.294.347 0 .623.113.83.339.207.226.31.61.31 1.151v.835l-.282.068c-.346.106-.696.217-1.05.333-.353.117-.694.245-1.021.384a8.38 8.38 0 0 0-.92.457 3.732 3.732 0 0 0-.75.564c-.215.211-.384.448-.508.712a2.04 2.04 0 0 0-.187.88c0 .316.059.608.175.875.117.267.284.498.503.694.218.196.483.35.795.463.313.113.664.169 1.056.169.286 0 .534-.02.745-.062.21-.041.4-.1.57-.175.169-.075.321-.164.457-.265.135-.102.274-.213.417-.333v.677h2.585z"/></g><g transform="matrix(1 0 0 -1 11.868 16.868)" stroke-width="1.25"><circle stroke="#4063D8" fill="#6682DF" cx="1.678" cy="1.651" r="1.594"/><circle stroke="#CB3C33" fill="#D5635C" cx="17.849" cy="1.651" r="1.594"/><circle stroke="#389826" fill="#60AD51" cx="19.941" cy="5.238" r="1.594"/><circle stroke="#9558B2" fill="#AA79C1" cx="22.034" cy="1.651" r="1.594"/></g></g></g></svg>
