<?xml version="1.0" encoding="UTF-8"?>
<svg width="48px" height="48px" viewBox="0 0 48 48" version="1.1" xmlns="http://www.w3.org/2000/svg" xmlns:xlink="http://www.w3.org/1999/xlink">
    <!-- Generator: Sketch 42 (36781) - http://www.bohemiancoding.com/sketch -->
    <title>OCaml</title>
    <desc>Created with Sketch.</desc>
    <defs>
        <path d="M23.0024823,0.00283048074 L23.0024823,0 L22.9971631,0 L22.9971631,0.00283048074 L0,11.3551811 C0,38.7966919 22.6163061,47.8457388 22.9971631,47.9971695 L22.9971631,48 L23,47.9985848 L23.0024823,48 L23.0024823,47.9971695 C23.3844031,47.8457388 46,38.7966919 46,11.3551811 L23.0024823,0.00283048074" id="path-1"></path>
        <linearGradient x1="4.6%" y1="-2.62%" x2="4.6%" y2="13.01%" id="linearGradient-3">
            <stop stop-color="#F29104" offset="0%"></stop>
            <stop stop-color="#EC6813" offset="100%"></stop>
        </linearGradient>
        <linearGradient x1="49.9336493%" y1="0.0265614198%" x2="49.9336493%" y2="99.7067232%" id="linearGradient-4">
            <stop stop-color="#F29104" offset="0%"></stop>
            <stop stop-color="#EC6813" offset="100%"></stop>
        </linearGradient>
        <linearGradient x1="49.9808586%" y1="-0.0119545234%" x2="49.9809289%" y2="99.9508818%" id="linearGradient-5">
            <stop stop-color="#F29104" offset="0%"></stop>
            <stop stop-color="#EC6813" offset="100%"></stop>
        </linearGradient>
        <linearGradient x1="49.929771%" y1="-0.142192942%" x2="49.929771%" y2="99.9101357%" id="linearGradient-6">
            <stop stop-color="#F29104" offset="0%"></stop>
            <stop stop-color="#EC6813" offset="100%"></stop>
        </linearGradient>
        <linearGradient x1="50%" y1="0%" x2="50%" y2="97.4022055%" id="linearGradient-7">
            <stop stop-color="#F08708" offset="0%"></stop>
            <stop stop-color="#C55757" offset="100%"></stop>
        </linearGradient>
    </defs>
    <g id="Levels-and-languages" stroke="none" stroke-width="1" fill="none" fill-rule="evenodd">
        <g id="OCaml">
            <g id="Coffee" transform="translate(1.000000, 0.000000)">
                <g id="Group-2">
                    <mask id="mask-2" fill="white">
                        <use xlink:href="#path-1"></use>
                    </mask>
                    <use id="Mask" fill="#F2F5F7" xlink:href="#path-1"></use>
                    <g mask="url(#mask-2)">
                        <g transform="translate(-3.000000, 2.000000)">
                            <path d="M26.4465278,36.8906392 C26.38125,36.4983918 26.5118056,36.1061443 26.38125,35.7138969 C26.2833333,35.3870241 26.0548611,35.3543368 25.8916667,35.0928385 C25.4673611,34.4064055 25.0756944,33.4911615 25.0104167,32.6412921 C24.9777778,31.8894845 24.6840278,31.1703643 24.6513889,30.4185567 C24.61875,30.0589966 24.6840278,29.6667491 24.6513889,29.307189 C24.6513889,29.1437526 24.61875,28.9803162 24.5861111,28.7841924 C24.5861111,28.7515052 24.5534722,28.5553814 24.5208333,28.4573196 L24.61875,28.2285086 C24.5861111,28.163134 25.4347222,28.163134 25.6958333,28.163134 C26.1201389,28.163134 26.5444444,28.1958213 26.96875,28.1958213 C27.85,28.2285086 28.6659722,28.2285086 29.5145833,28.0977595 C31.4402778,27.8035739 32.3215278,27.019079 32.7458333,26.6922062 C34.5083333,25.4174021 35.2916667,23.3581031 35.2916667,23.3581031 C35.5854167,22.7043574 35.5854167,21.5603024 36.2055556,21.0373058 C36.9236111,20.4162474 38.1638889,20.481622 39.0125,20.0893746 C39.5020833,19.8605636 39.8611111,19.7625017 40.3506944,19.8605636 C40.7097222,19.9259381 41.3951389,20.3835601 41.5583333,19.7625017 C41.4277778,19.6971271 41.3951389,19.5336907 41.3298611,19.4683162 C42.0152778,19.4029416 41.3298611,17.8012646 41.06875,17.4743918 C40.6444444,16.9840825 39.9263889,16.7552715 39.1756944,16.5591478 C38.2944444,16.3303368 37.4784722,16.0361512 36.6298611,16.1995876 C35.1611111,16.4937732 35.2590278,15.6439038 34.4104167,15.6439038 C33.3659722,15.6439038 31.5381944,15.7092784 31.2118056,16.6898969 C31.0486111,17.1475189 30.9180556,17.1802062 30.6569444,17.5397663 C30.4284722,17.8339519 30.6895833,18.1281375 30.5916667,18.4876976 C30.4611111,18.8472577 30.2979167,20.1220619 30.1347222,20.5796838 C29.8409722,21.3314914 29.4819444,22.2794227 28.8291667,22.2794227 C27.9152778,22.3774845 27.1972222,22.4101718 26.4465278,22.1486735 C25.9895833,21.9852371 25.2388889,21.7237388 24.8798611,21.5929897 C23.1826389,20.8738694 22.8888889,20.0893746 22.8888889,20.0893746 C22.6930556,19.795189 22.2361111,19.3048797 22.0402778,18.651134 C21.8444444,17.964701 21.5180556,17.3763299 21.3875,16.9840825 C21.2569444,16.5918351 20.8979167,16.0034639 20.6368056,15.3497182 C20.3104167,14.4998488 19.8208333,13.8787904 19.4618056,13.5846048 C18.9395833,13.1269828 18.45,12.3751753 17.3729167,12.6039863 C17.1770833,12.6366735 16.4916667,12.6693608 15.9368056,13.1269828 C15.5777778,13.4211684 15.4472222,14.0749141 15.1208333,14.5979107 C14.925,14.8920962 14.5986111,15.7746529 14.2722222,16.5264605 C14.04375,17.049457 13.9458333,17.4090172 13.7173611,17.6051409 C13.5215278,17.73589 13.2930556,17.9320137 13.0319444,17.8339519 C12.86875,17.7685773 12.6729167,17.6705155 12.5097222,17.507079 C12.2486111,17.3109553 11.69375,16.3303368 11.3347222,15.6439038 C11.0409722,15.0228454 10.3881944,14.1076014 10.0291667,13.5846048 C9.50694444,12.8654845 9.18055556,12.6693608 8.39722222,12.6693608 C6.7,12.6693608 6.56944444,13.6172921 5.81875,15.0228454 C5.49236111,15.6439038 5.36180556,16.5918351 4.70902778,17.3436426 C4.31736111,17.7685773 3.14236111,19.566378 2.29375,19.8605636 L2.29375,19.8605636 L2.29375,19.8605636 L2.29375,32.5432302 L2.29375,32.5759175 L2.29375,32.510543 C2.35902778,32.3471065 2.39166667,32.1836701 2.45694444,32.052921 C2.78333333,31.366488 3.53402778,30.7127423 3.95833333,30.0263093 C4.18680556,29.6340619 4.44791667,29.2745017 4.57847222,28.849567 C4.70902778,28.4900069 4.77430556,27.9670103 4.97013889,27.6728247 C5.19861111,27.3132646 5.55763889,27.1825155 5.91666667,27.1171409 C6.50416667,27.019079 6.99375,27.934323 7.71180556,28.2938832 C8.03819444,28.4246323 9.47430556,28.9476289 9.89861111,29.0456907 C10.6166667,29.2091271 11.4,29.3725636 12.1180556,29.5033127 C12.5097222,29.5686873 12.86875,29.6340619 13.2930556,29.6667491 C13.6520833,29.6994364 14.9902778,29.7321237 15.0881944,29.8301856 C14.4027778,30.1897457 14.0111111,31.1703643 13.75,31.8567973 C13.4888889,32.5759175 13.2930556,33.3930997 12.9666667,34.0795326 C12.6076389,34.8640275 11.8569444,35.1909003 11.9548611,36.1061443 C11.9875,36.4657045 12.0527778,36.8579519 11.9875,37.2501993 C11.9222222,37.675134 11.7590278,38.0020069 11.6284722,38.3942543 C11.4652778,38.9172509 11.2694444,40.649677 11.0409722,41.1726735 L12.5423611,40.9765498 L12.5423611,40.9765498 C12.7055556,40.5843024 12.86875,38.9499381 12.9013889,38.7865017 C13.1951389,37.9693196 13.5541667,37.2828866 14.1090278,36.6618282 C14.6638889,36.0407698 14.63125,35.2562749 14.9576389,34.5044674 C15.3166667,33.7199725 15.7736111,33.0989141 16.2305556,32.3471065 C17.0465278,31.0069278 17.56875,29.3398763 19.2986111,28.9803162 C19.4944444,28.9476289 20.5388889,29.6994364 20.9958333,30.1570584 C21.5180556,30.680055 22.1055556,31.2684261 22.4645833,31.9875464 C23.15,33.3604124 23.7048611,35.3543368 23.9333333,36.4330172 C24.0638889,37.0540756 24.1618056,37.0867629 24.5861111,37.6097595 C24.7819444,37.8385704 25.1736111,38.5576907 25.3041667,38.819189 C25.4347222,39.1133746 25.6305556,39.7671203 25.79375,40.1266804 C25.8916667,40.3228041 26.1527778,40.9438625 26.3159722,41.4995464 L27.7194444,41.4668591 L27.7520833,41.4668591 L27.7520833,41.4668591 L27.7520833,41.4341718 C27.0993056,40.0613058 26.675,38.4596289 26.4465278,36.8906392 Z" id="Shape" fill="#FFFFFF" fill-rule="nonzero"></path>
                            <path d="M25.5326389,28.7604742 L25.5326389,28.7604742 C25.5326389,28.6831409 25.5326389,28.6831409 25.5326389,28.7604742 Z" id="Shape" fill="#494545" fill-rule="nonzero"></path>
                            <g id="Group" stroke-width="1" fill="none" fill-rule="evenodd" transform="translate(0.326389, 0.000000)">
                                <path d="M25.20625,28.7604742 L25.20625,28.7604742 C25.20625,28.6831409 25.20625,28.6831409 25.20625,28.7604742 Z" id="Shape" fill="url(#linearGradient-3)" fill-rule="nonzero"></path>
                                <path d="M25.5326389,41.5820155 C25.3694444,41.2143851 25.1736111,40.4423613 25.0430556,40.1114939 C24.9125,39.8173896 24.5208333,39.0086028 24.325,38.7512615 C23.9006944,38.1998159 23.8027778,38.1630529 23.6722222,37.4277921 C23.44375,36.1778488 22.8888889,33.9720665 22.2034722,32.4280189 C21.8444444,31.619232 21.2569444,30.9574973 20.7347222,30.3692887 C20.2777778,29.8546062 19.2333333,29.0090563 19.0375,29.0458193 C17.3076389,29.4134497 16.7854167,31.3251277 15.9694444,32.8324123 C15.5125,33.6779622 15.0555556,34.3764599 14.6965278,35.2587728 C14.3701389,36.0675597 14.4027778,36.9866357 13.8479167,37.6851334 C13.2930556,38.3836311 12.9013889,39.1556549 12.6402778,40.0747309 C12.575,40.2585461 12.4444444,42.096698 12.28125,42.5378545 L12.28125,42.5378545 L14.8270833,42.3540393 C17.2097222,42.5378545 16.5243056,43.5672196 20.2125,43.3466413 L26.0548611,43.1260631 L26.0548611,43.1260631 C25.8916667,42.5010914 25.6305556,41.8025937 25.5326389,41.5820155 Z" id="Shape" fill="url(#linearGradient-4)" fill-rule="nonzero"></path>
                                <path d="M43.2565361,0.415795065 L7.08926924,0.415795065 C3.71774436,0.415795065 0.99327982,3.23216479 0.99327982,6.71742232 L0.99327982,20.4472247 L0.99327982,20.4472247 C1.8787308,20.1303831 3.10473984,18.1941289 3.51340952,17.7364689 C4.19452566,16.9267626 4.33074889,15.8706239 4.67130695,15.2369407 C5.45459051,13.7583466 5.59081374,12.702208 7.36171569,12.702208 C8.17905506,12.702208 8.51961312,12.9134357 9.06450603,13.6879374 C9.43911991,14.2160067 10.120236,15.2369407 10.4267383,15.9058285 C10.8013522,16.6803302 11.3803009,17.7012642 11.6527474,17.912492 C11.8570822,18.0533105 12.0273612,18.1941289 12.1976403,18.2645382 C12.4700867,18.3701521 12.7084774,18.1589243 12.9128122,18.0181058 C13.1512028,17.8068781 13.2533703,17.4196273 13.4917609,16.8563533 C13.832319,16.046647 14.1728771,15.1313269 14.3772119,14.7792807 C14.71777,14.2160067 14.8539932,13.5119143 15.2286071,13.1950727 C15.7735,12.702208 16.5227277,12.6670034 16.7270626,12.6317987 C17.8509042,12.3853664 18.3617413,13.1950727 18.9066342,13.6879374 C19.2812481,14.0399836 19.7580294,14.7088714 20.1326432,15.5889869 C20.4050897,16.2930794 20.7456478,16.9619672 20.9159268,17.349218 C21.05215,17.7364689 21.3927081,18.3701521 21.5970429,19.1446537 C21.8013778,19.8135415 22.2781591,20.3416109 22.4824939,20.6936571 C22.4824939,20.6936571 22.7889962,21.538568 24.5598981,22.3130697 C24.934512,22.4890928 25.7177956,22.7707297 26.1945769,22.9115482 C26.9778604,23.1931852 27.7270882,23.1579806 28.6806508,23.0523667 C29.3617669,23.0523667 29.7363808,22.0314327 30.042883,21.2217264 C30.2131621,20.7288617 30.4174969,19.3558815 30.5196643,18.9686306 C30.6218317,18.5813798 30.3493853,18.2997428 30.5877759,17.9476966 C30.8602224,17.5604458 31.0305014,17.5252411 31.1667247,17.0323764 C31.5072827,15.9410332 33.4144079,15.9058285 34.5041937,15.9058285 C35.4237005,15.9058285 35.2874773,16.8211487 36.8199886,16.5043071 C37.7054396,16.328284 38.5568347,16.609921 39.4763415,16.8915579 C40.2596251,17.1027857 41.0088528,17.349218 41.4515783,17.8772873 C41.7240248,18.2293336 42.4391967,19.95436 41.7240248,20.0247693 C41.7921364,20.0951785 41.860248,20.2712016 41.9624154,20.3416109 C41.7921364,21.0104987 41.1110202,20.517634 40.7023506,20.4472247 C40.1915135,20.3416109 39.8168996,20.4472247 39.3060625,20.6936571 C38.4206115,21.0809079 37.1605466,21.0457033 36.3772631,21.7145911 C35.7302028,22.277865 35.7302028,23.5100268 35.4237005,24.2141192 C35.4237005,24.2141192 34.5723053,26.4320104 32.7673476,27.8049906 C32.2905663,28.1570368 31.3710595,29.0019478 29.3958227,29.3187894 C28.5103717,29.4596078 27.6589765,29.4596078 26.7394698,29.4244032 C26.2967443,29.3891986 25.8540188,29.3891986 25.4112933,29.3891986 C25.1388468,29.3891986 24.2533959,29.353994 24.2874517,29.4596078 L24.1852843,29.7060402 C24.1852843,29.7764494 24.2193401,29.9876772 24.2533959,30.0580864 C24.2874517,30.2693141 24.2874517,30.4453372 24.3215075,30.6213603 C24.3215075,31.0086112 24.2874517,31.4310666 24.3215075,31.8183175 C24.3555633,32.6280238 24.6620656,33.3673208 24.6961214,34.2122317 C24.7301772,35.1275519 25.1729027,36.1132813 25.6156281,36.8525784 C25.7859072,37.1342153 26.0242978,37.16942 26.1264652,37.5214662 C26.2626885,37.908717 26.1264652,38.3663771 26.1945769,38.7888325 C26.4329675,40.4434498 26.9097488,42.2036808 27.6249207,43.7174796 L27.6249207,43.7526842 L27.6249207,43.7526842 C28.5103717,43.6118657 29.4298785,43.2598195 30.5877759,43.0837964 C32.7332918,42.7669548 35.696147,42.9077733 37.6032721,42.7317502 C42.4391967,42.2740901 45.0614938,44.7736182 49.3865813,43.7526842 L49.3865813,6.71742232 C49.3525255,3.23216479 46.6280609,0.415795065 43.2565361,0.415795065 Z M25.2069585,29.9876772 C25.2069585,29.9172679 25.2069585,29.9172679 25.2069585,29.9876772 L25.2069585,29.9876772 Z" id="Shape" fill="url(#linearGradient-5)" fill-rule="nonzero"></path>
                                <path d="M12.7055556,34.1122199 C13.0319444,33.3930997 13.2277778,32.6086048 13.4888889,31.8894845 C13.75,31.2030515 14.1416667,30.222433 14.8270833,29.8628729 C14.7291667,29.764811 13.3909722,29.7321237 13.0319444,29.6994364 C12.6402778,29.6667491 12.2486111,29.6013746 11.8569444,29.536 C11.1388889,29.4052509 10.3229167,29.2418144 9.6375,29.078378 C9.21319444,28.9803162 7.74444444,28.4573196 7.45069444,28.3265704 C6.7,27.9996976 6.21041667,27.0517663 5.65555556,27.1498282 C5.29652778,27.2152027 4.9375,27.3459519 4.70902778,27.705512 C4.51319444,27.9996976 4.44791667,28.5226942 4.31736111,28.8822543 C4.15416667,29.2745017 3.89305556,29.6667491 3.69722222,30.0589966 C3.24027778,30.7454296 2.48958333,31.366488 2.16319444,32.052921 C2.09791667,32.2163574 2.06527778,32.3797938 2,32.5432302 L2,32.6086048 L2,35.1909003 L2,39.7671203 L2,40.420866 C2.39166667,40.4862405 2.78333333,40.5516151 3.20763889,40.6823643 C6.47152778,41.564921 7.25486111,41.6302955 10.4534722,41.2707354 L10.7472222,41.2380481 L10.7472222,41.2380481 C10.9756944,40.7150515 11.1715278,38.9826254 11.3347222,38.4596289 C11.4652778,38.0346942 11.6284722,37.7078213 11.69375,37.3155739 C11.7590278,36.9233265 11.69375,36.531079 11.6611111,36.1715189 C11.5958333,35.2235876 12.3465278,34.8967148 12.7055556,34.1122199 Z" id="Shape" fill="url(#linearGradient-6)" fill-rule="nonzero"></path>
                            </g>
                        </g>
                    </g>
                </g>
                <path d="M23.0024823,0.00283048074 L23.0024823,0 L22.9971631,0 L22.9971631,0.00283048074 L0,11.3551811 C0,38.7966919 22.6163061,47.8457388 22.9971631,47.9971695 L22.9971631,48 L23,47.9985848 L23.0024823,48 L23.0024823,47.9971695 C23.3844031,47.8457388 46,38.7966919 46,11.3551811 L23.0024823,0.00283048074 M23.0024983,44.9985668 L23.0024983,45 L22.9971448,45 L22.9971448,44.9985668 C22.6659469,44.865635 3,36.945981 3,12.9365626 L22.9971448,3.00179153 L22.9971448,3 L23,3.00143323 L23.0024983,3 L23.0024983,3.00179153 L43,12.9365626 C43,36.945981 23.3336962,44.865635 23.0024983,44.9985668" id="Fill-3" fill="url(#linearGradient-7)"></path>
            </g>
        </g>
    </g>
</svg>