<svg width="48" height="48" viewBox="0 0 48 48" version="1.1" xmlns="http://www.w3.org/2000/svg" xmlns:xlink="http://www.w3.org/1999/xlink">
<title>PHP_shield</title>
<desc>Created using Figma</desc>
<g id="Canvas" transform="translate(-200 299)">
<clipPath id="clip-0" clip-rule="evenodd">
<path d="M 200 -299L 248 -299L 248 -251L 200 -251L 200 -299Z" fill="#FFFFFF"/>
</clipPath>
<g id="PHP_shield" clip-path="url(#clip-0)">
<g id="PHP_shield">
<g id="Fill 3">
<use xlink:href="#path0_fill" transform="translate(201 -299)" fill="url(#paint0_linear)"/>
</g>
<g id="Path">
<use xlink:href="#path1_fill" transform="translate(204 -296)" fill="#FCFCFC"/>
</g>
<g id="PHP">
<use xlink:href="#path2_fill" transform="translate(210 -283)" fill="url(#paint2_linear)"/>
</g>
</g>
</g>
</g>
<defs>
<linearGradient id="paint0_linear" x1="0" y1="0" x2="1" y2="0" gradientUnits="userSpaceOnUse" gradientTransform="matrix(0 48 -46 0 23 0)">
<stop offset="0" stop-color="#7C7B8F"/>
<stop offset="1" stop-color="#838383"/>
</linearGradient>
<linearGradient id="paint2_linear" x1="0" y1="0" x2="1" y2="0" gradientUnits="userSpaceOnUse" gradientTransform="matrix(0 9.95312 -26.7705 0 13.3852 0)">
<stop offset="0" stop-color="#7C7B8F"/>
<stop offset="1" stop-color="#838383"/>
</linearGradient>
<path id="path0_fill" fill-rule="evenodd" d="M 23.0025 0.00283048L 23.0025 0L 22.9972 0L 22.9972 0.00283048L 0 11.3552C 0 38.7967 22.6163 47.8457 22.9972 47.9972L 22.9972 48L 23 47.9986L 23.0025 48L 23.0025 47.9972C 23.3844 47.8457 46 38.7967 46 11.3552L 23.0025 0.00283048ZM 23.0025 44.7347L 23.0025 44.7361L 22.9972 44.7361L 22.9972 44.7347C 22.6681 44.6034 3.1277 36.7831 3.1277 13.075L 22.9972 3.26495L 22.9972 3.26318L 23 3.2646L 23.0025 3.26318L 23.0025 3.26495L 42.8723 13.075C 42.8723 36.7831 23.3316 44.6034 23.0025 44.7347Z"/>
<path id="path1_fill" fill-rule="evenodd" d="M 20.0025 41.9986L 20.0025 42L 19.9971 42L 19.9971 41.9986C 19.6659 41.8656 0 33.946 0 9.93656L 19.9971 0.00179153L 19.9971 0L 20 0.00143323L 20.0025 0L 20.0025 0.00179153L 40 9.93656C 40 33.946 20.3337 41.8656 20.0025 41.9986Z"/>
<path id="path2_fill" fill-rule="evenodd" d="M 2.9668 6.54199L 2.29004 9.95312L 0 9.95312L 1.98926 0L 5.81055 0C 6.86329 0 7.66992 0.301918 8.23047 0.905762C 8.79102 1.50961 8.97331 2.29915 8.77734 3.27441C 8.56315 4.33627 8.08578 5.14632 7.34521 5.70459C 6.60465 6.26286 5.65788 6.54199 4.50488 6.54199L 2.9668 6.54199ZM 3.32227 4.76465L 4.86035 4.76465C 5.27507 4.76465 5.62825 4.62565 5.91992 4.34766C 6.21159 4.06966 6.40299 3.71647 6.49414 3.28809C 6.58529 2.81413 6.54769 2.44385 6.38135 2.17725C 6.21501 1.91064 5.90625 1.77734 5.45508 1.77734L 3.92383 1.77734L 3.32227 4.76465ZM 16.4746 9.95312L 14.1982 9.95312L 14.998 5.94727L 11.7578 5.94727L 10.958 9.95312L 8.66797 9.95312L 10.6572 0L 12.9473 0L 12.1133 4.16992L 15.3535 4.16992L 16.1875 0L 18.4639 0L 16.4746 9.95312ZM 20.8838 6.54199L 20.207 9.95312L 17.917 9.95312L 19.9062 0L 23.7275 0C 24.7803 0 25.5869 0.301918 26.1475 0.905762C 26.708 1.50961 26.8903 2.29915 26.6943 3.27441C 26.4801 4.33627 26.0028 5.14632 25.2622 5.70459C 24.5216 6.26286 23.5749 6.54199 22.4219 6.54199L 20.8838 6.54199ZM 21.2393 4.76465L 22.7773 4.76465C 23.1921 4.76465 23.5452 4.62565 23.8369 4.34766C 24.1286 4.06966 24.32 3.71647 24.4111 3.28809C 24.5023 2.81413 24.4647 2.44385 24.2983 2.17725C 24.132 1.91064 23.8232 1.77734 23.3721 1.77734L 21.8408 1.77734L 21.2393 4.76465Z"/>
</defs>
</svg>
