<svg width="48" height="48" xmlns="http://www.w3.org/2000/svg"><path fill="none" d="M-1-1h50v50H-1z"/><g><g fill-rule="evenodd" fill="none"><path fill="#E9EFF0" d="M3.046 12.522c0 24.91 20.604 33.124 20.95 33.26.354-.136 20.958-8.35 20.958-33.26L24.002 2.217 3.046 12.522z"/><path fill="#D9DFE0" d="M24.002 2.214h-.005v.003l-.02.01v43.548l.02.008v.003h.005v-.003c.348-.137 20.952-8.35 20.952-33.26L24.002 2.216v-.003"/><path fill="#3498DB" d="M24.002 2.217v-.003h-.005v.003L3.047 12.522c0 24.91 20.603 33.124 20.95 33.26v.004l.003-.002.002.002v-.003c.348-.137 20.952-8.35 20.952-33.26L24.002 2.216m0 40.605h-.005c-.3-.12-18.102-7.218-18.102-28.74L23.997 5.18v-.002l.003.002.002-.002v.002l18.103 8.905c0 21.52-17.803 28.62-18.103 28.74"/><path fill="#3483B8" d="M24.002 4.147h-.004L4.903 13.54c0 22.7 18.778 30.187 19.095 30.312v.002h.004v-.002c.317-.125 19.095-7.61 19.095-30.313L24.002 4.146m0 38.692h-.005c-.3-.12-18.12-7.226-18.12-28.766l18.12-8.913h.005l18.12 8.914c0 21.54-17.82 28.646-18.12 28.765"/><path fill="#1478BA" d="M23.976 5.188l18.13 8.895c0 21.52-17.804 28.62-18.104 28.74l-.026 2.952c.374-.13 20.978-8.343 20.978-33.253L28.958 4.654l-4.956-2.437-.026 2.97z"/><path fill="#2A6A96" d="M43.097 13.54L24.002 4.146h-.004l-.022.01v1.014l.02-.01h.006l18.12 8.914c0 21.54-17.82 28.646-18.12 28.765h-.005l-.02-.01v1.014l.02.008v.002h.005v-.002c.317-.125 19.095-7.61 19.095-30.313"/><path fill="#3AA8F2" d="M5.878 14.074l-.975-.535 19.095-9.393.004 1.014-18.124 8.914"/><path fill="#3498DB" d="M43.097 13.54l-.975.534c0 21.54-17.82 28.646-18.12 28.765h-.005l-.02-.01v1.014l.02.008v.002h.005v-.002c.317-.125 19.095-7.61 19.095-30.313"/><g><path fill="#3498DB" d="M26.127 17.626h-9.15c-1.527 0-2.864.923-3.283 2.68-.482 2.012-.504 3.268 0 5.37.374 1.565 1.266 2.68 2.793 2.68h1.466v-2.414c0-2.547 1.842-3.626 3.624-3.626h4.55v-4.69M21.513 12.257c-2.224.395-2.628 1.222-2.628 2.747v1.33h6.028v-4.12c-.878.007-2.66-.09-3.4.043zm-.438 2.87c-.39 0-.703-.315-.703-.705 0-.39.314-.707.703-.707.388 0 .702.316.702.707 0 .39-.314.706-.702.706z"/><path fill="#1378BA" d="M23.955 22.318h2.324c1.436 0 2.115-.722 2.115-2.17v-5.024c0-1.43-.727-2.272-2.116-2.682-.818-.24-1.487-.212-2.325-.228v10.104"/><path fill="#3498DB" d="M21.782 28.172h9.15c1.527 0 2.864-.923 3.283-2.68.482-2.013.503-3.27 0-5.37-.374-1.566-1.266-2.68-2.793-2.68h-1.466v2.414c0 2.546-1.842 3.626-3.624 3.626h-4.55v4.69M26.396 33.54c2.224-.394 2.628-1.222 2.628-2.747v-1.33h-6.028v4.12c.878-.007 2.66.09 3.4-.042zm.44-2.87c.387 0 .7.315.7.706 0 .39-.313.707-.7.707-.39 0-.704-.317-.704-.707 0-.39.314-.707.703-.707z"/><path fill="#1378BA" d="M23.898 23.48H21.63c-1.437 0-2.116.722-2.116 2.168v5.025c0 1.43.727 2.272 2.116 2.682.817.24 1.43.213 2.268.23V23.48"/></g><g><circle r="8" cy="35.986" cx="31.954" fill="#FFF" stroke="#1478BA"/><path d="M30.806 34.783h.96c.368 0 .64-.097.815-.29.177-.193.265-.458.265-.794 0-.13-.02-.252-.06-.367-.042-.115-.104-.217-.186-.305-.083-.088-.188-.157-.315-.208-.126-.05-.276-.076-.448-.076-.12 0-.24.018-.354.056-.115.037-.22.09-.31.158-.093.068-.167.15-.223.25-.057.096-.085.208-.085.333H28.89c0-.363.078-.688.234-.975.157-.287.368-.53.633-.73.266-.2.57-.35.917-.456.346-.107.71-.16 1.093-.16.453 0 .867.053 1.242.16.374.104.695.26.963.464.268.206.476.46.624.762.148.303.223.654.223 1.052 0 .195-.032.383-.094.562-.063.18-.15.35-.264.507-.113.16-.252.302-.416.43-.164.13-.345.24-.545.335.454.164.81.413 1.068.747.258.333.386.746.386 1.238 0 .4-.08.754-.243 1.067-.16.312-.384.576-.67.79-.285.216-.622.38-1.01.49-.39.11-.81.167-1.263.167-.238 0-.478-.022-.718-.065-.24-.042-.473-.107-.695-.193-.223-.086-.432-.196-.627-.33-.195-.136-.364-.296-.507-.48-.142-.187-.255-.397-.34-.63-.083-.236-.125-.5-.125-.792h1.987c0 .136.03.263.087.38.058.118.137.22.237.308.1.088.216.156.348.205.133.05.274.074.422.074.18 0 .34-.028.484-.08.143-.053.263-.127.36-.22.1-.094.173-.203.224-.328.05-.125.076-.26.076-.405 0-.43-.108-.734-.322-.914-.215-.18-.512-.27-.89-.27h-.962v-1.47z" fill="#FF6545"/></g></g></g></svg>